<svg width="30" height="30" viewBox="0 0 30 30" fill="none" xmlns="http://www.w3.org/2000/svg">
<circle cx="15" cy="15" r="15" fill="#00FEA6"/>
<path d="M20.9984 21C21.2611 21.0002 21.5214 20.9523 21.7642 20.8591C22.0071 20.7658 22.2277 20.629 22.4136 20.4565C22.5995 20.2839 22.747 20.079 22.8476 19.8535C22.9482 19.628 23 19.3863 23 19.1422V13.8341C23.0001 13.5413 22.938 13.2514 22.8175 12.9809C22.6969 12.7104 22.5202 12.4646 22.2974 12.2576C22.0745 12.0505 21.81 11.8863 21.5188 11.7742C21.2277 11.6622 20.9156 11.6045 20.6005 11.6045H9.73623C9.44155 11.6045 9.15836 11.4983 8.94639 11.3081C8.73441 11.1179 8.61022 10.8587 8.6 10.5851C8.61056 10.293 8.74165 10.0159 8.96612 9.8111C9.19059 9.60633 9.49124 9.48962 9.8058 9.48514H20.5981C20.7032 9.48508 20.8072 9.50425 20.9043 9.54155C21.0013 9.57886 21.0895 9.63356 21.1638 9.70254C21.2381 9.77152 21.297 9.85342 21.3372 9.94357C21.3774 10.0337 21.3981 10.1303 21.3981 10.2279V10.4791C21.3981 10.6762 21.4824 10.8653 21.6325 11.0046C21.7825 11.144 21.986 11.2223 22.1981 11.2223C22.4103 11.2223 22.6138 11.144 22.7638 11.0046C22.9139 10.8653 22.9981 10.6762 22.9981 10.4791V10.2292C22.9979 9.63798 22.745 9.07104 22.2949 8.65302C21.8449 8.235 21.2345 8.00011 20.5981 8H9.73623C9.01103 8.00148 8.31598 8.26977 7.80318 8.74617C7.29038 9.22257 7.00159 9.86828 7 10.542V18.0271C7 18.8156 7.33714 19.5717 7.93726 20.1293C8.53737 20.6868 9.35131 21 10.2 21H20.9984ZM21.3986 16.7893H18.635C18.5294 16.7881 18.4285 16.7486 18.3538 16.6792C18.2791 16.6098 18.2366 16.516 18.2352 16.4179V15.9815C18.2352 15.883 18.2774 15.7885 18.3523 15.7189C18.4273 15.6492 18.529 15.6101 18.635 15.6101H21.4032L21.3986 16.7893ZM8.59861 18.0297V12.8595C8.95499 13.0132 9.34336 13.0921 9.73623 13.0909H20.5981C20.7032 13.0909 20.8073 13.11 20.9044 13.1474C21.0015 13.1847 21.0897 13.2394 21.164 13.3085C21.2383 13.3775 21.2972 13.4594 21.3374 13.5496C21.3776 13.6398 21.3982 13.7365 21.3981 13.8341V14.1181H18.635C18.1041 14.1192 17.5954 14.3159 17.2205 14.6651C16.8456 15.0143 16.6351 15.4874 16.6352 15.9806V16.4291C16.6406 16.919 16.8535 17.3872 17.2278 17.7323C17.6021 18.0773 18.1077 18.2715 18.635 18.2727H21.4032V19.1413C21.4032 19.2399 21.3611 19.3345 21.286 19.4042C21.211 19.474 21.1092 19.5131 21.003 19.5131H10.2C9.77565 19.5131 9.36869 19.3565 9.06863 19.0778C8.76857 18.799 8.6 18.4209 8.6 18.0267L8.59861 18.0297Z" fill="black"/>
</svg>
